<?xml version="1.0" encoding="iso-8859-1"?>
<!-- Generator: Adobe Illustrator 18.0.0, SVG Export Plug-In . SVG Version: 6.00 Build 0)  -->
<!DOCTYPE svg PUBLIC "-//W3C//DTD SVG 1.1//EN" "http://www.w3.org/Graphics/SVG/1.1/DTD/svg11.dtd">
<svg version="1.1" id="Capa_1" xmlns="http://www.w3.org/2000/svg" xmlns:xlink="http://www.w3.org/1999/xlink" x="0px" y="0px"
	 viewBox="0 0 298.162 298.162" style="enable-background:new 0 0 298.162 298.162;" xml:space="preserve">
<g>
	<path d="M115.234,177.73c2.133,4.638,6.818,7.867,12.25,7.867h13.27c5.486,0,10.213-3.296,12.314-8.01h25.766
		c28.396,0,51.5,23.104,51.5,51.504v63.567c0,3.039,2.465,5.503,5.504,5.503c3.039,0,5.502-2.464,5.502-5.503v-63.567
		c0-34.469-28.041-62.51-62.506-62.51h-25.799c-2.117-4.675-6.824-7.937-12.281-7.937h-13.27c-5.381,0-10.033,3.169-12.191,7.737
		c-17.809-1.943-32.01-16.036-34.123-33.789c5.557-1.799,9.988-6.113,11.947-11.596c11.123,19.401,32.041,32.5,55.963,32.5
		c23.922,0,44.84-13.1,55.963-32.503c2.602,7.284,9.566,12.512,17.734,12.512c10.381,0,18.824-8.444,18.824-18.823V92.525
		c0-8.521-5.689-15.732-13.467-18.047C225.684,32.998,191.166,0,149.08,0c-42.086,0-76.603,32.998-79.055,74.479
		c-7.775,2.314-13.465,9.526-13.465,18.046v22.158c0,8.548,5.73,15.778,13.549,18.065c1.578,16.561,11.332,30.771,25.17,38.544
		c-22.697,9.381-38.711,31.753-38.711,57.799v63.567c0,3.039,2.463,5.503,5.502,5.503c3.039,0,5.504-2.464,5.504-5.503v-63.567
		C67.574,201.985,88.623,179.703,115.234,177.73z M149.08,142.492c-29.475,0-53.453-23.98-53.453-53.457
		c0-29.47,23.979-53.445,53.453-53.445c29.473,0,53.453,23.976,53.453,53.445C202.533,118.512,178.553,142.492,149.08,142.492z
		 M230.596,92.525v22.158c0,4.311-3.506,7.817-7.818,7.817s-7.82-3.507-7.82-7.817V92.525c0-4.313,3.508-7.822,7.82-7.822
		S230.596,88.213,230.596,92.525z M149.08,11.006c36.045,0,65.645,28.112,68.033,63.564c-1.695,0.535-3.285,1.306-4.736,2.271
		c-5.717-29.727-31.924-52.258-63.297-52.258c-31.375,0-57.58,22.529-63.297,52.257c-1.451-0.966-3.041-1.735-4.736-2.271
		C83.438,39.118,113.035,11.006,149.08,11.006z M67.566,114.684V92.525c0-4.313,3.508-7.822,7.818-7.822
		c4.313,0,7.82,3.51,7.82,7.822v22.158c0,4.311-3.508,7.817-7.82,7.817C71.074,122.501,67.566,118.994,67.566,114.684z"/>
</g>
<g>
</g>
<g>
</g>
<g>
</g>
<g>
</g>
<g>
</g>
<g>
</g>
<g>
</g>
<g>
</g>
<g>
</g>
<g>
</g>
<g>
</g>
<g>
</g>
<g>
</g>
<g>
</g>
<g>
</g>
</svg>
